<?xml version="1.0" encoding="utf-8"?>
<!-- Generator: Adobe Illustrator 25.2.1, SVG Export Plug-In . SVG Version: 6.00 Build 0)  -->
<svg width="25" height="25" version="1.1" id="Layer_1" xmlns="http://www.w3.org/2000/svg" xmlns:xlink="http://www.w3.org/1999/xlink" x="0px" y="0px"
	 viewBox="0 0 16.5 17.8" style="enable-background:new 0 0 16.5 17.8;" xml:space="preserve">
<path d="M8.2,0.3c-3,0-5.5,2.5-5.5,5.5c0,1.9,1,3.6,2.4,4.5c-2.8,1.2-4.8,4-4.8,7.2H2c0-3.5,2.8-6.2,6.2-6.2s6.2,2.8,6.2,6.2h1.6
	c0-3.2-2-6-4.8-7.2c1.5-1,2.4-2.7,2.4-4.5C13.7,2.8,11.3,0.3,8.2,0.3z M8.2,1.9c2.2,0,3.9,1.7,3.9,3.9s-1.7,3.9-3.9,3.9
	S4.3,7.9,4.3,5.8S6.1,1.9,8.2,1.9z"/>
</svg>
